<svg xmlns="http://www.w3.org/2000/svg" width="732" height="775" viewBox="0 0 732 775" version="1.1">
	<path d="M 120.500 20 L 90.500 20.500 90.241 75.250 L 89.983 130 121.048 130 L 152.112 130 158.292 125 C 161.690 122.250, 164.735 120, 165.057 120 C 165.379 120, 168.606 122.362, 172.228 125.250 L 178.813 130.500 201.176 130 L 223.540 129.500 229.750 124.618 L 235.960 119.737 242.226 124.868 L 248.492 130 289.726 130 L 330.960 130 325.996 137.603 C 319.383 147.733, 316.949 155.746, 316.291 169.552 C 315.673 182.492, 317.689 192.187, 323.576 204.592 C 327.368 212.584, 336.331 225.073, 342.886 231.500 C 345.130 233.700, 346.974 235.775, 346.983 236.112 C 346.992 236.449, 343.512 237.038, 339.250 237.422 C 303.708 240.622, 275.563 253.947, 248.058 280.595 L 235.355 292.903 178.957 292.975 L 122.560 293.048 119.724 295.765 C 117.518 297.878, 115.808 298.521, 112.027 298.657 C 106.413 298.860, 99.389 301.710, 96.500 304.957 C 94.853 306.809, 94.440 308.929, 94.160 316.979 C 93.753 328.696, 94.930 331.703, 101.414 335.502 L 105.817 338.083 136.992 337.791 L 168.166 337.500 171.083 334.234 C 174.550 330.353, 174.671 329.122, 171.927 325.635 L 169.855 323 140.927 323 C 113.260 323, 111.912 322.912, 109.985 320.985 C 106.273 317.273, 110.236 309.568, 116.410 308.492 C 122.404 307.447, 226.836 307.455, 226.235 308.500 C 225.918 309.050, 224.446 311.300, 222.963 313.500 C 217.413 321.730, 208.886 339.901, 205.364 351 C 201.085 364.487, 199.841 373.529, 199.292 395.161 C 198.737 417.043, 199.613 432.788, 202.595 454.500 C 204.513 468.473, 205.160 470.435, 209.939 476.796 C 212.097 479.669, 214.788 484.491, 215.919 487.512 C 221.246 501.750, 232.783 520.143, 243.957 532.212 C 255.260 544.421, 273.624 557.340, 285.758 561.620 C 292.385 563.958, 292.156 563.362, 300.029 598.810 C 303.366 613.831, 306.474 627.106, 306.937 628.310 C 307.975 631.010, 312.493 632.471, 326.145 634.522 C 331.765 635.366, 336.902 636.504, 337.561 637.051 C 338.220 637.597, 339.007 639.272, 339.309 640.772 C 339.612 642.273, 340.122 644.175, 340.442 645 C 340.950 646.308, 338.565 646.458, 321.762 646.167 C 309.475 645.955, 300.509 646.262, 297 647.014 C 282.974 650.022, 270.455 659.592, 264.728 671.685 C 261.699 678.079, 261.500 679.179, 261.500 689.500 C 261.500 697.823, 261.907 701.291, 263.173 703.750 C 264.805 706.919, 264.793 707.012, 262.673 707.467 C 261.478 707.723, 254.425 709.123, 247 710.577 C 219.459 715.971, 208.779 720.981, 211.998 726.997 C 216.487 735.384, 259.736 744.134, 319 748.644 C 346.909 750.768, 430.279 751.103, 460 749.211 C 509.188 746.080, 550.596 738.701, 564.410 730.606 C 568.621 728.138, 569.083 727.517, 568.808 724.699 C 568.426 720.791, 564.070 718.078, 552.500 714.540 C 542.988 711.631, 525.160 708, 520.392 708 C 516.536 708, 516.513 707.934, 518.471 702.500 C 521.485 694.133, 519.952 679.677, 515.028 670.045 C 511.989 664.102, 502.577 654.833, 496.404 651.705 C 486.311 646.590, 481.804 645.891, 460.995 646.208 L 441.794 646.500 442.407 642.040 C 442.744 639.588, 443.352 637.279, 443.760 636.910 C 444.167 636.540, 449.450 635.519, 455.500 634.639 C 470.601 632.445, 473.898 631.397, 475.023 628.438 C 475.534 627.096, 477.298 619.585, 478.944 611.748 C 483.738 588.928, 486.982 574.846, 488.608 569.807 C 489.905 565.789, 490.653 564.943, 493.811 563.919 C 500.018 561.906, 512.120 555.452, 519.630 550.150 C 533.780 540.160, 545.733 527.362, 555.964 511.247 C 560.864 503.529, 569.984 484.798, 569.995 482.430 C 569.998 481.841, 571.625 479.461, 573.612 477.141 C 576.844 473.364, 577.415 471.797, 579.049 462.211 C 584.638 429.431, 586.297 387.516, 582.758 368.500 C 579.045 348.548, 570.813 327.449, 561.244 313.360 L 557.264 307.500 612.370 307.791 C 671.890 308.105, 669.938 307.924, 673.569 313.465 C 675.629 316.609, 674.665 319.605, 670.979 321.511 C 668.624 322.729, 662.838 323, 639.205 323 C 612.482 323, 610.186 323.137, 608.655 324.829 C 606.008 327.754, 606.513 333.471, 609.635 335.927 C 612.173 337.924, 613.416 338, 643.385 337.994 C 661.424 337.991, 676.041 337.561, 678.168 336.970 C 680.225 336.399, 683.189 334.410, 684.918 332.441 C 687.893 329.052, 688 328.605, 688 319.530 C 688 314.360, 687.567 308.993, 687.039 307.602 C 685.843 304.458, 678.989 300.028, 674.143 299.268 C 672.139 298.953, 668.619 297.415, 666.320 295.848 L 662.140 293 605.800 293 L 549.460 293 538.532 282.462 C 521.616 266.150, 502.054 253.820, 481 246.198 C 469.425 242.008, 462.626 240.381, 448.306 238.376 L 436.112 236.669 442.825 229.481 C 460.709 210.330, 468.076 191.960, 466.661 170.044 C 465.850 157.493, 461.960 145.234, 455.584 135.133 C 454.163 132.882, 453 130.806, 453 130.520 C 453 130.234, 505.313 129.997, 569.250 129.993 C 681.446 129.987, 685.600 129.921, 688.359 128.102 C 689.931 127.066, 692.066 124.931, 693.102 123.359 C 694.875 120.669, 694.987 117.933, 694.993 77.184 C 694.998 47.275, 694.655 33.192, 693.884 31.684 C 693.271 30.483, 690.700 27.362, 688.172 24.750 L 683.575 20 465.368 20 L 247.161 20 241.570 25.110 L 235.978 30.221 232.739 27.620 C 230.958 26.189, 228.141 23.912, 226.481 22.559 C 223.482 20.116, 223.303 20.098, 199.981 19.902 L 176.500 19.705 170.373 25.349 L 164.246 30.994 159.873 26.936 C 151.277 18.961, 154.006 19.442, 120.500 20 M 126 34.769 L 104.500 35.038 104.500 75.269 L 104.500 115.500 126.175 115.769 L 147.850 116.039 153.925 110.983 L 160 105.927 160 95.317 L 160 84.706 156.433 80.353 L 152.866 76 156.433 71.647 L 160 67.294 160 56.215 L 160 45.137 154.917 40.318 C 152.121 37.668, 149.309 35.275, 148.667 35 C 148.025 34.725, 137.825 34.621, 126 34.769 M 199.518 34.749 L 181.535 35.048 177.768 38.727 L 174 42.406 174 74.915 L 174 107.424 178.208 111.712 L 182.416 116 199.977 116 L 217.537 116 222.518 111.933 C 225.258 109.697, 228.018 107.197, 228.650 106.378 C 229.468 105.321, 229.757 96.051, 229.648 74.335 L 229.496 43.779 224.178 38.890 C 221.253 36.200, 218.554 34.101, 218.180 34.225 C 217.806 34.349, 209.408 34.585, 199.518 34.749 M 417.998 69.301 L 418 104.102 421.750 105.665 C 423.813 106.525, 426.694 108.077, 428.154 109.114 C 429.614 110.151, 431.077 111, 431.404 111 C 431.732 111, 432 99.750, 432 86 C 432 72.250, 432.358 61, 432.796 61 C 433.234 61, 436.363 64.095, 439.750 67.877 L 445.907 74.754 445.298 95.377 L 444.689 116 450.389 116 L 456.089 116 455.795 98.499 C 455.593 86.494, 455.838 80.998, 456.576 80.999 C 457.167 80.999, 458.715 82.133, 460.016 83.517 L 462.381 86.034 465.983 82.517 C 467.964 80.583, 469.893 79, 470.270 79 C 470.647 79, 470.689 87.325, 470.362 97.500 L 469.770 116 475.385 116 L 481 116 481 95.537 L 481 75.073 487.115 68.537 C 490.478 64.941, 493.648 62, 494.161 62 C 494.720 62, 494.974 72.784, 494.796 89.001 L 494.500 116.002 501.750 116.001 L 509 116 509 75.500 L 509 35 497.089 35 L 485.177 35 479.036 41.702 C 475.658 45.389, 471.005 50.768, 468.697 53.655 C 466.389 56.543, 464.275 58.919, 464 58.935 C 463.725 58.952, 462.600 57.681, 461.500 56.112 C 460.400 54.542, 456.024 49.175, 451.775 44.185 L 444.049 35.112 431.023 34.806 L 417.996 34.500 417.998 69.301 M 521.999 75.250 L 522 116 529.250 116.001 L 536.500 116.002 536.178 92.251 C 536 79.188, 536.161 66.475, 536.535 64 L 537.215 59.500 543.608 66.364 L 550 73.228 550 94.614 L 550 116 555.500 116 L 561 116 561 95.465 C 561 72.174, 560.419 73.212, 569.153 80.902 C 574.071 85.233, 576 85.965, 576 83.500 C 576 82.675, 576.439 82, 576.976 82 C 577.560 82, 578.062 88.714, 578.226 98.750 L 578.500 115.500 583.500 115.500 L 588.500 115.500 589 95.830 L 589.500 76.161 595.388 69.580 C 598.626 65.961, 601.663 63, 602.138 63 C 602.612 63, 603 74.925, 603 89.500 L 603 116 610 116 L 617 116 617 75.500 L 617 35 604.022 35 L 591.045 35 580.939 47.429 L 570.834 59.858 564.828 52.880 C 561.525 49.043, 556.500 43.423, 553.661 40.393 L 548.500 34.884 535.249 34.692 L 521.998 34.500 521.999 75.250 M 631 74.893 L 631 116 638.500 116 L 646 116 646 83.646 L 646 51.291 656 51.123 L 666 50.955 666.014 81.228 C 666.021 97.877, 666.299 112.513, 666.630 113.750 C 667.182 115.807, 667.824 116, 674.117 116 L 681 116 681 77.782 L 681 39.564 678.344 37.282 C 675.764 35.065, 675.101 35, 654.926 35 C 643.507 35, 633.452 34.727, 632.582 34.393 C 631.155 33.846, 631 37.820, 631 74.893 M 247.208 39.288 L 243 43.576 243 75.075 L 243 106.575 247.784 111.288 L 252.569 116 269.569 116 L 286.568 116 291.784 110.719 L 297 105.437 297 94.628 L 297 83.818 293.500 79.729 C 291.575 77.480, 290 75.334, 290 74.961 C 290 74.587, 291.571 72.306, 293.490 69.891 C 296.966 65.518, 296.981 65.457, 296.990 55.186 L 297 44.871 292.750 39.936 L 288.500 35.001 269.958 35 L 251.416 35 247.208 39.288 M 310 75.500 L 310 116 317.500 116 L 325 116 325 88.500 C 325 72.585, 325.385 61, 325.913 61 C 326.415 61, 329.556 64.037, 332.894 67.750 L 338.962 74.500 338.981 95.361 L 339 116.223 342.742 115.521 C 344.801 115.134, 346.826 114.608, 347.242 114.350 C 347.659 114.093, 348 106.484, 348 97.441 C 348 86.209, 348.346 81, 349.094 81 C 349.695 81, 350.423 81.900, 350.710 83 C 350.998 84.100, 351.518 84.981, 351.867 84.957 C 352.215 84.933, 354.974 82.697, 357.998 79.989 C 364.782 73.913, 364.835 73.998, 364.930 91.250 C 364.968 98.263, 365.113 104, 365.250 103.999 C 365.387 103.999, 367.750 103.145, 370.500 102.101 L 375.500 100.204 375.779 87.107 L 376.058 74.011 382.144 67.506 C 385.491 63.928, 388.628 61, 389.115 61 C 389.602 61, 390 69.550, 390 80 L 390 99 393.250 99.011 C 395.038 99.017, 398.188 99.301, 400.250 99.642 L 404 100.262 404 67.631 L 404 35 390.590 35 L 377.180 35 370.780 42.250 C 367.259 46.237, 362.665 51.638, 360.569 54.250 C 358.474 56.862, 356.476 58.981, 356.130 58.957 C 355.783 58.934, 353.729 56.620, 351.564 53.815 C 349.400 51.010, 344.947 45.629, 341.668 41.857 L 335.708 35 322.854 35 L 310 35 310 75.500 M 120 59.032 L 120 67.063 131.750 66.782 L 143.500 66.500 143.792 58.750 L 144.084 51 132.042 51 L 120 51 120 59.032 M 188.398 52.406 C 188.158 53.031, 188.083 64.107, 188.231 77.021 L 188.500 100.500 201 100.500 L 213.500 100.500 213.500 76 L 213.500 51.500 201.167 51.386 C 192.792 51.308, 188.693 51.636, 188.398 52.406 M 258 59 L 258 67 269.500 67 L 281 67 281 59 L 281 51 269.500 51 L 258 51 258 59 M 120.334 84.594 C 120.098 85.195, 120.040 89.020, 120.203 93.094 L 120.500 100.500 132 100.500 L 143.500 100.500 143.500 92 L 143.500 83.500 132.130 83.500 C 124.829 83.500, 120.608 83.891, 120.334 84.594 M 258.001 92.283 L 258 101.066 269.250 100.783 L 280.500 100.500 280.787 91.914 L 281.073 83.328 269.538 83.414 L 258.002 83.500 258.001 92.283 M 374.870 117.001 C 364.904 119.521, 351.690 127.906, 344.425 136.323 C 340.054 141.387, 335.178 150.722, 333.363 157.500 C 331.632 163.963, 331.644 179.074, 333.385 185.612 C 334.134 188.424, 336.452 193.970, 338.536 197.937 C 341.853 204.250, 342.586 205.053, 344.413 204.385 C 345.561 203.965, 368.090 203.544, 394.479 203.449 L 442.457 203.276 444.776 197.986 C 448.346 189.840, 449.970 181.407, 449.973 171 C 449.978 155.298, 445.911 144.346, 436.153 133.787 C 429.686 126.789, 423.112 122.299, 414.500 118.999 C 409.393 117.042, 406.267 116.654, 393.500 116.392 C 385.250 116.222, 376.867 116.497, 374.870 117.001 M 95.726 147.500 C 94.677 148.050, 93.110 149.689, 92.244 151.142 C 90.920 153.362, 90.869 154.269, 91.925 156.820 C 92.617 158.490, 93.878 160.123, 94.728 160.449 C 95.578 160.775, 141.099 161.049, 195.887 161.058 L 295.500 161.075 297.250 158.927 C 299.587 156.058, 299.463 151.874, 296.961 149.189 C 294.934 147.012, 294.708 147, 256.711 146.962 C 235.695 146.941, 191.305 146.829, 158.067 146.712 C 119.295 146.576, 96.950 146.858, 95.726 147.500 M 486.557 149.223 C 484.424 152.268, 484.585 157.314, 486.881 159.392 C 488.626 160.972, 495.888 161.091, 587.631 161.045 L 686.500 160.996 688.250 158.887 C 690.691 155.946, 690.448 151.770, 687.686 149.174 L 685.371 147 586.742 147 L 488.113 147 486.557 149.223 M 109.500 183.672 C 105.210 184.616, 102.418 186.206, 100.500 188.798 C 98.721 191.202, 98.500 193.067, 98.500 205.715 L 98.500 219.931 104 225.523 C 113.257 234.935, 112.040 234.620, 140.121 234.849 C 154.902 234.969, 165.811 234.642, 167.416 234.032 C 170.294 232.938, 173.146 227.631, 172.241 225.052 C 170.474 220.017, 170.379 220, 143.449 220 L 118.207 220 115.104 216.465 C 112.535 213.540, 112 212.085, 112 208.030 C 112 205.335, 112.439 201.976, 112.975 200.565 L 113.950 198 130.753 198 C 150.983 198, 152.278 197.519, 151.801 190.181 C 151.361 183.406, 150.076 183.009, 129 183.131 C 119.375 183.186, 110.600 183.430, 109.500 183.672 M 169.635 185.073 C 166.631 187.436, 166.063 192.335, 168.419 195.559 C 169.793 197.439, 171.795 197.509, 231.927 197.788 L 294.016 198.075 296.508 195.583 C 299.672 192.419, 299.686 188.595, 296.545 185.455 L 294.091 183 233.180 183 C 173.073 183, 172.235 183.027, 169.635 185.073 M 487.073 185.635 C 484.323 189.130, 484.455 192.546, 487.455 195.545 L 489.909 198 548.820 198 C 606.904 198, 607.767 197.971, 610.365 195.927 C 613.809 193.218, 613.957 188.248, 610.686 185.174 L 608.371 183 548.758 183 L 489.145 183 487.073 185.635 M 632.315 183.972 C 627.619 185.940, 626.681 191.772, 630.455 195.545 C 632.896 197.987, 633.014 198, 652.810 198 L 672.711 198 673.320 204.527 C 674.060 212.443, 673.069 215.378, 668.775 217.996 C 665.744 219.844, 663.723 219.993, 641.684 219.996 C 626.817 219.999, 617.124 220.399, 615.886 221.061 C 611.510 223.403, 611.480 231.661, 615.842 233.590 C 616.754 233.993, 628.955 234.394, 642.955 234.481 L 668.409 234.639 677.016 228.882 C 681.817 225.670, 686.148 221.972, 686.811 220.516 C 687.523 218.953, 687.999 213.010, 687.996 205.703 C 687.993 195.372, 687.694 193.010, 686.044 190.304 C 682.073 183.792, 680.945 183.524, 656.547 183.278 C 644.421 183.156, 633.517 183.468, 632.315 183.972 M 354.003 219.750 C 354.010 221.445, 366.220 236, 367.635 236 C 368.477 236, 369.017 235.649, 368.833 235.220 C 368.650 234.791, 367.202 230.966, 365.616 226.720 L 362.732 219 358.366 219 C 355.965 219, 354.001 219.338, 354.003 219.750 M 191.250 221.989 C 188.716 223.534, 188 224.649, 188 227.051 C 188 231.473, 189.505 233.681, 193.392 234.964 C 197.906 236.454, 201.452 235.440, 204.534 231.777 C 207.465 228.294, 207.144 225.687, 203.363 222.250 C 200.275 219.443, 195.592 219.342, 191.250 221.989 M 579.923 222.923 C 575.536 227.311, 576.358 231.582, 582.168 234.587 C 588.236 237.725, 596 233.690, 596 227.398 C 596 220.177, 585.572 217.274, 579.923 222.923 M 340.500 254.015 C 330.764 255.050, 318.144 257.728, 310.204 260.444 C 271.758 273.596, 236.312 310.417, 222.549 351.500 C 217.072 367.847, 215.815 376.024, 215.323 398.500 C 214.870 419.197, 216.692 446.123, 218.676 448.055 C 220.336 449.671, 240.723 455.093, 253.926 457.430 C 290.652 463.932, 327.221 466.410, 387 466.446 C 443.288 466.480, 493.840 464.037, 521 459.972 C 534.354 457.972, 561.888 452.445, 562.741 451.592 C 564.135 450.198, 566 424.064, 566.101 404.500 C 566.232 379.215, 564.892 368.698, 559.441 352.230 C 546.204 312.236, 522.446 283.921, 487.500 266.493 C 470.732 258.130, 460.365 255.452, 439.346 254.052 C 421.752 252.881, 351.421 252.855, 340.500 254.015 M 99.182 373.119 C 79.288 376.428, 61.670 392.527, 55.612 412.932 C 53.583 419.768, 53.518 434.597, 55.485 442 C 61.673 465.280, 80.524 482.183, 104 485.499 C 110.992 486.487, 121.621 484.333, 129.710 480.290 L 136.920 476.685 143.612 482.593 C 160.509 497.509, 173.781 508.317, 176.831 509.645 C 179.945 511, 180.435 510.935, 184.331 508.638 C 186.624 507.287, 192.438 502.149, 197.250 497.220 C 203.796 490.515, 206 487.590, 206 485.606 C 206 482.204, 201.969 477.842, 180.695 458.225 C 168.371 446.860, 164.060 442.298, 164.527 441.114 C 164.876 440.226, 165.394 436.350, 165.677 432.500 C 167.004 414.457, 158.024 395.562, 142.479 383.689 C 129.770 373.982, 115.270 370.442, 99.182 373.119 M 663 373.066 C 651.241 374.823, 640.223 380.726, 630.518 390.467 C 619.371 401.656, 614.132 417.321, 615.783 434.521 L 616.632 443.368 598.814 460.820 C 589.013 470.419, 580.091 479.735, 578.986 481.523 C 575.836 486.619, 577.848 489.985, 591.282 502.088 C 600.964 510.811, 603.033 511.497, 608.898 507.921 C 612.863 505.504, 625.030 494.995, 636.725 483.887 L 644.950 476.075 652.260 479.547 C 671.805 488.828, 690.756 487.178, 708.218 474.674 C 717.927 467.721, 725.049 457.843, 728.628 446.362 C 730.983 438.811, 731.202 436.811, 730.781 426.727 C 730.403 417.688, 729.814 414.297, 727.757 409.328 C 719.696 389.846, 702.770 376.439, 681.974 373.066 C 674.675 371.881, 670.926 371.881, 663 373.066 M 290.465 374.002 C 287.862 374.993, 286.252 376.967, 285.982 379.500 C 285.865 380.600, 285.822 396.662, 285.885 415.194 C 286.025 456.292, 285.098 453.704, 300.035 454.662 C 309.236 455.252, 309.675 455.184, 312.535 452.724 L 315.500 450.174 315.845 414.753 L 316.189 379.332 313.845 376.761 C 311.718 374.430, 310.616 374.146, 302 373.709 C 296.775 373.445, 291.584 373.576, 290.465 374.002 M 422.557 376.223 C 421.217 378.136, 421 383.538, 421 415.048 L 421 451.651 423.314 453.826 C 425.391 455.776, 426.702 455.997, 436.064 455.968 C 443.782 455.945, 447.021 455.543, 448.500 454.426 C 450.418 452.978, 450.520 451.439, 451 416.708 C 451.518 379.191, 451.256 376.080, 447.455 374.621 C 446.565 374.280, 440.949 374, 434.975 374 C 424.885 374, 424.003 374.158, 422.557 376.223 M 99.500 387.406 C 91.836 389.300, 88.122 391.646, 80.378 399.488 C 70.956 409.028, 68.593 414.720, 68.540 428 C 68.506 436.582, 68.788 438.065, 71.460 443.345 C 73.096 446.577, 76.568 451.123, 79.228 453.515 C 84.439 458.200, 93.154 463, 96.446 462.999 C 97.820 462.999, 97.085 462.298, 94.230 460.885 C 89.013 458.302, 83.845 452.474, 79.704 444.500 C 76.905 439.112, 76.583 437.581, 76.544 429.482 C 76.504 421.285, 76.795 419.865, 79.749 413.863 C 85.526 402.120, 94.568 394.636, 108.632 389.956 C 112.142 388.788, 114.760 387.420, 114.448 386.916 C 113.666 385.650, 105.524 385.917, 99.500 387.406 M 660.286 387.451 C 645.189 392.169, 634.082 406.247, 632.459 422.722 C 631.880 428.591, 632.145 431.119, 633.965 437.111 C 635.918 443.542, 636.941 445.143, 642.836 450.999 C 651.535 459.641, 658.577 462.511, 671 462.477 C 678.225 462.457, 680.354 462.038, 685.192 459.682 C 704.941 450.064, 713.511 428.185, 705.761 407.168 C 702.373 397.981, 694.204 390.623, 684.040 387.605 C 677.602 385.693, 666.149 385.618, 660.286 387.451 M 236.132 482.645 C 238.637 488.461, 247.342 504.128, 251.330 510 C 257.872 519.632, 270.498 532.220, 279.792 538.378 C 286.698 542.953, 303.640 550.694, 304.615 549.718 C 304.864 549.469, 302.378 547.888, 299.090 546.205 C 287.124 540.081, 274.660 529.035, 264.444 515.500 C 258.498 507.622, 251.117 493.497, 250.293 488.418 C 249.736 484.984, 249.256 484.661, 243 483.500 C 241.075 483.143, 238.659 482.612, 237.632 482.320 C 236.604 482.029, 235.929 482.175, 236.132 482.645 M 96.017 504.851 C 89.422 508.388, 88.500 510.723, 88.500 523.874 C 88.500 536.923, 89.393 539.440, 95.304 543.044 C 98.305 544.874, 100.561 544.993, 132.300 544.996 C 168.252 545, 170.468 544.731, 172.970 540.055 C 174.461 537.270, 174.248 535.528, 172.089 532.861 L 170.179 530.500 136.339 530 L 102.500 529.500 102.199 524.842 C 101.764 518.117, 103.736 517, 116.048 517 C 124.793 517, 125.846 516.793, 127.826 514.686 C 130.808 511.512, 130.622 507.634, 127.365 505.073 C 125.015 503.224, 123.364 503, 112.100 503 C 101.716 503, 98.854 503.329, 96.017 504.851 M 654.578 505.118 C 651.603 507.457, 651.187 511.394, 653.557 514.777 C 655.011 516.854, 655.865 517, 666.557 517 C 676.667 517, 678.233 517.233, 680 519 C 682.488 521.488, 682.509 524.810, 680.056 527.750 C 678.180 529.999, 678.165 530, 645.544 530 L 612.909 530 610.455 532.455 C 608.052 534.857, 607.302 538.451, 608.765 540.558 C 609.169 541.140, 610.613 542.377, 611.973 543.308 C 614.177 544.816, 618.167 545, 648.755 545 C 686.420 545, 687.412 544.865, 692.297 539.059 C 694.875 535.995, 695 535.339, 695 524.874 C 695 512.542, 694.032 509.585, 688.765 505.829 C 685.756 503.683, 684.389 503.484, 671.328 503.295 C 658.428 503.109, 656.924 503.272, 654.578 505.118 M 98.619 568.016 C 95.109 569.089, 91.332 572.496, 89.282 576.438 C 87.454 579.953, 87.881 598.057, 89.879 601.781 C 90.553 603.036, 92.948 605.399, 95.202 607.031 L 99.300 610 135.002 610 C 170.380 610, 170.734 609.980, 174.010 607.750 C 180.206 603.533, 180.965 601.615, 181.086 589.858 C 181.212 577.743, 179.969 573.854, 174.712 569.910 L 171.500 567.500 136.500 567.317 C 117.250 567.217, 100.204 567.531, 98.619 568.016 M 611.462 568.034 C 609.792 568.536, 607.092 570.337, 605.462 572.036 C 602.552 575.071, 602.495 575.339, 602.210 587.313 C 601.883 601.034, 602.939 604.144, 609.241 608.025 C 612.370 609.952, 613.957 610.022, 649 609.766 L 685.500 609.500 689.173 606.690 C 693.916 603.062, 695 599.712, 695 588.689 C 695 580.919, 694.661 579.097, 692.541 575.480 C 687.739 567.285, 688.997 567.524, 649.500 567.311 C 630.250 567.207, 613.133 567.532, 611.462 568.034 M 309.365 571.510 C 309.627 572.192, 310.803 577.419, 311.977 583.125 C 313.152 588.831, 315.466 599.184, 317.119 606.132 L 320.125 618.764 325.812 619.847 C 352.113 624.854, 400.648 626.064, 433.500 622.532 C 455.233 620.195, 460.161 619.027, 461.163 615.974 C 462.311 612.476, 470.872 572.559, 470.546 572.222 C 470.398 572.068, 461.552 572.731, 450.888 573.695 C 436.354 575.008, 421.361 575.453, 391 575.473 C 351.060 575.500, 333.870 574.594, 316.195 571.534 C 310.400 570.531, 308.988 570.526, 309.365 571.510 M 103.035 583.934 C 101.630 586.559, 101.727 592.327, 103.200 593.800 C 104.080 594.680, 112.422 595, 134.500 595 C 156.578 595, 164.920 594.680, 165.800 593.800 C 167.273 592.327, 167.370 586.559, 165.965 583.934 C 164.976 582.087, 163.561 582, 134.500 582 C 105.439 582, 104.024 582.087, 103.035 583.934 M 617.750 583.080 C 615.549 584.362, 615.311 592.183, 617.420 593.934 C 618.445 594.784, 627.131 595.089, 648.661 595.029 C 681.738 594.937, 681.481 594.989, 681.297 588.486 C 681.108 581.833, 681.925 581.997, 649.128 582.030 C 630.871 582.049, 618.828 582.452, 617.750 583.080 M 94 627.341 C 90.975 628.033, 86.700 629.460, 84.500 630.514 C 78.650 633.315, 70.313 642.096, 67.203 648.732 C 64.779 653.904, 64.500 655.636, 64.500 665.500 C 64.500 675.350, 64.781 677.100, 67.188 682.236 C 72.592 693.767, 84.136 702.071, 97.326 703.916 C 114.928 706.378, 130.652 698.364, 138.593 682.883 C 142.568 675.134, 143.180 662.539, 140.011 653.722 C 133.150 634.637, 112.893 623.023, 94 627.341 M 668.892 629.306 C 662.497 631.992, 658.629 634.579, 654.909 638.659 C 642.614 652.143, 641.758 674.884, 652.987 689.741 C 661.062 700.426, 670.371 704.514, 685.029 703.813 C 692.337 703.464, 694.821 702.871, 700.324 700.161 C 723.576 688.714, 727.748 656.293, 708.333 637.930 C 700.553 630.573, 693.508 627.600, 683 627.241 C 675.900 626.998, 673.576 627.338, 668.892 629.306 M 352.015 638.916 C 352.023 639.237, 352.842 642.102, 353.835 645.283 C 355.105 649.352, 356.992 652.465, 360.200 655.783 C 370.622 666.565, 375 676.423, 375 689.105 L 375 696 390.500 696 L 406 696 406 689.589 C 406 677.194, 411.019 666.027, 420.654 656.986 C 425.790 652.166, 426.694 650.732, 428.095 645.176 L 429.690 638.852 418.595 639.676 C 404.524 640.721, 366.470 640.450, 358.250 639.246 C 354.813 638.743, 352.007 638.594, 352.015 638.916 M 90.936 641.750 C 84.894 644.815, 79.680 650.892, 78.046 656.775 C 75.517 665.879, 77.411 675.659, 82.803 681.343 C 85.865 684.571, 94.564 689.315, 96.329 688.718 C 96.973 688.500, 96.150 687.618, 94.500 686.756 C 90.372 684.601, 87.492 681.311, 85.084 676 C 82.770 670.895, 82.486 665.926, 84.136 659.375 C 85.536 653.814, 93.391 644.855, 99.057 642.355 C 101.226 641.398, 103 640.252, 103 639.808 C 103 638.037, 96.052 639.155, 90.936 641.750 M 674.137 640.369 C 668.953 642.245, 663.228 647.616, 660.343 653.310 C 654.578 664.686, 657.601 678.141, 667.405 684.750 C 673.754 689.030, 675.210 688.877, 670.733 684.400 C 665.415 679.082, 663.557 674.566, 663.672 667.244 C 663.847 656.212, 669.529 647.862, 680.890 641.940 C 683.150 640.762, 685 639.619, 685 639.399 C 685 638.534, 677.310 639.221, 674.137 640.369 M 297.358 659.878 C 289.510 661.940, 279.330 671.649, 276.592 679.684 C 273.944 687.455, 274.486 696.226, 278.100 704.065 C 280.727 709.765, 281.660 710.882, 284.225 711.395 C 288.223 712.195, 320.806 712.168, 339.715 711.349 L 354.748 710.699 356.888 706.293 C 358.066 703.870, 359.524 698.561, 360.128 694.497 C 361.113 687.873, 361.004 686.373, 359.075 680.022 C 357.252 674.019, 355.975 671.949, 350.712 666.461 L 344.500 659.985 322.500 659.519 C 310.400 659.262, 299.086 659.424, 297.358 659.878 M 441.386 659.660 C 436.557 660.071, 435.959 660.448, 430.689 666.414 C 422.012 676.236, 420.500 679.810, 420.500 690.500 C 420.500 698.358, 420.875 700.312, 423.455 705.903 L 426.410 712.305 462.260 711.729 C 486.854 711.334, 498.542 710.795, 499.485 710.012 C 501.971 707.950, 505 696.948, 505 689.984 C 505 680.518, 502.647 674.516, 496.542 668.411 C 489.296 661.166, 485.476 660.135, 464 659.634 C 454.375 659.409, 444.199 659.421, 441.386 659.660 M 143.077 729.589 C 138.355 733.562, 139.433 740.694, 145.110 743.046 C 151.095 745.525, 157 741.565, 157 735.073 C 157 727.662, 149.076 724.541, 143.077 729.589 M 633.806 730.040 C 631.264 732.582, 630.867 733.606, 631.382 736.290 C 632.160 740.346, 636.245 744, 640 744 C 643.755 744, 647.840 740.346, 648.618 736.290 C 649.133 733.606, 648.736 732.582, 646.194 730.040 C 644.092 727.939, 642.180 727, 640 727 C 637.820 727, 635.908 727.939, 633.806 730.040 M 1.762 774.707 C 3.006 774.946, 4.806 774.937, 5.762 774.687 C 6.718 774.437, 5.700 774.241, 3.500 774.252 C 1.300 774.263, 0.518 774.468, 1.762 774.707 M 13.784 774.738 C 16.689 774.941, 21.189 774.939, 23.784 774.734 C 26.378 774.528, 24 774.363, 18.500 774.365 C 13 774.368, 10.878 774.536, 13.784 774.738 " stroke="none" fill="rgba(63, 62, 62, 0.438)" fill-rule="evenodd"/>
</svg>